<svg version="1" xmlns="http://www.w3.org/2000/svg" width="684" height="684" viewBox="0 0 513.000000 513.000000"><path d="M209 1.6c-28.3 6-52.3 25.7-61.5 50.7-3.8 10.3-3.7 10-9.6 11.3C122.8 66.8 108.7 75 96 87.9c-19.5 19.8-30.7 46.7-31.1 74.7l-.1 8.4-7.2 5.9C21.9 206.1 9.1 246 23 284.3c5.1 13.8 16.6 31.6 25.9 40L53 328l-1.1 5.2c-1.3 7-1 23.2.7 32.1 6.8 35.3 34.2 67.3 67.8 78.8 8.2 2.8 10.6 3.4 18.6 4.5 5.4.7 6 1.1 6 3 0 .9 1.4 4.9 3 9.1 9.2 22.8 30 41.1 55 48.3 9.5 2.7 26.9 3.5 35.5 1.6 27.1-6.1 47.3-26.1 57-56.6 2.5-7.8 2.8-10 3.1-28 .2-10.7.5-20.9.8-22.5.3-1.7.8-6.4 1.2-10.5.3-4.1.8-7.7.9-8 .2-.3 7.7-.5 16.7-.5h16.3l.3 21.1.2 21-4.4 3.1c-12.6 8.9-16.9 25.3-10.3 39.5 3.1 6.9 7.8 11.8 14.8 15.4 4.6 2.4 6.6 2.8 13.9 2.8 7 0 9.4-.4 13.5-2.4 17.3-8.4 23.6-29.3 13.9-45.6-3.1-5.2-6.4-8.5-11.3-11.4-1.1-.6-1.4-6.5-1.5-31.6-.1-42.7 1.9-40.3-35.4-40.7-23.3-.2-24.7-.3-24.5-2 0-1 .4-8.5.8-16.5.7-13.4 1.1-19.7 1.4-21.3 0-.4 31.9-.6 70.8-.5l70.8.1V362c0 44.5-.1 46.5-1.9 48-9 7.1-13.5 15.3-14 25.2-1 19 14 34.1 33.1 33.4 30.9-1.1 42.1-41 16.4-58.5l-5-3.3.1-54.3c0-60.7.1-59.3-7-63.7l-3.5-2.2H306.9l.5-24c.3-13.3.5-24.4.5-24.9.1-.4 28.6-.7 63.4-.7h63.4l1.4 2.6c2.7 5 10.8 11.3 17.3 13.3 15.7 4.9 31.5-1.9 38.7-16.5 2.8-5.6 3.2-7.4 3.1-14.1-.1-6.4-.6-8.7-3.2-14-10-20.3-37.8-24-52.7-7-1.7 2-3.6 4.3-4.1 5.2-.8 1.5-6.3 1.7-63.6 1.7-34.5 0-63-.2-63.3-.5-.3-.3-.7-10.1-1-21.6l-.4-21.1h35.3c33.5 0 35.5-.1 38.6-2 1.8-1.1 4.1-3.4 5.2-5.2 1.9-3.1 2-5.1 2-37.9V85.3l4.9-3.9C401.1 74.8 405 66.7 405 56c0-12.3-6.5-22.7-17.8-28.2-5.8-2.9-7.6-3.3-14.2-3.2-12.9.1-23.4 6.8-28.9 18.4-3.8 8-3.7 19.2.2 27.1 2.5 5.2 8.6 11.8 13.2 14.5 1.7 1 1.9 2.7 1.9 25.8.1 15.4-.3 25-.9 25.5-1.1.8-52.1.9-52.8.1-.3-.3-.8-4.9-1.1-10.4-.7-11.1-1.3-16.9-3.1-32.1-.6-4.7-3.1-21.2-4-26.2-1.3-7.4-5.1-20.7-7.4-25.8-4.5-9.8-14.4-21-25.1-28.4-8.5-5.8-12.2-7.5-24.5-11.1-6.2-1.8-24-2-31.5-.4zm30.7 36.5c12.5 5.9 23.4 20.8 29.3 39.6l2.1 6.8v343.2l-2.7 7.9c-6.6 19.4-15.9 31.9-28 37.9-6.3 3.2-9.1 3.8-17.5 3.8-16.8-.1-34.4-11.4-42.1-27.1-3-6-3.3-7.5-3.3-15.7s.3-9.7 3.2-15.5c5.9-12 17.6-22.9 34.9-32.6 10.7-6 13.8-10 13.7-17.8-.1-8-3.3-13.1-10.3-16-5.6-2.2-11-1.3-19.6 3.3-24.1 13-42.3 31.1-51 50.7-2.7 5.9-3.2 6.4-6 6.4-8.6 0-25-8.5-34.5-17.9-18.7-18.7-25-39.9-19-64.8 2.7-11.3 1.9-15.8-3.8-21.3-14.6-13.7-17.9-17.2-21.6-23-4.2-6.4-8.1-15.6-9.3-21.5-.9-4.3-.8-17.3 0-21.7 3-15 16.5-32.8 33.5-44.1 7.5-5 12.2-9.7 12.5-12.5.1-.9.3-8.7.4-17.2.1-8.5.4-16.4.7-17.5 7-27 20.1-44.2 39.5-51.8L145 98l2.5 5.6c1.4 3.1 2.5 5.8 2.5 6.1 0 1.6 11.5 16.9 16.5 21.9 6.9 6.9 11.5 9 18.2 8 8.3-1.1 14.3-8.1 14.3-16.6 0-5.1-2-9.1-7.6-15-6.1-6.4-7.7-8.7-11-15.5-2.5-5.3-2.9-7.1-2.9-15 0-8.2.3-9.7 3.3-15.8 6.1-12.3 19.7-23 33.4-26.2 8.4-1.9 18.1-.9 25.5 2.6z"/><path d="M156.5 167.3c-6.7 1.7-20.4 17.7-28.1 32.9-3.8 7.5-8.9 21.8-9.9 27.5-2 11.9-2.3 15.9-2 26.8.4 13.3.7 15.4 3.6 27 4.9 19.5 19.3 44.6 28.2 49.1 8.5 4.4 20.3 0 23.6-8.9 2.6-6.7 1.5-10.8-5.3-20.9-11.4-17.2-15.9-31.1-15.8-49.8 0-13.8 2.2-23 8-34.6 4.4-8.6 5.3-9.9 12.5-18.1 6-6.8 7.6-10.5 7.2-16.1-.9-10.9-10.8-17.6-22-14.9z"/></svg>